#!OML:ASF E:/inclinewalkrobotboard/Project1/Captureday1/Session1/subject1.ASF
:FULLY-SPECIFIED
:DEGREES
1
root 0 0 0 1.1221927677675358 -3.6923545811845173 1.812201879295662
lowerback 11.90998708329769 0.8645399596792296 -0.03212043930942457
upperback -4.2349896868196 1.0986998620997768 -0.5482729593166282
thorax -11.299464996379264 0.5020122938388267 -0.8091446098966719
lowerneck -5.875654707103928 1.4847538689449127 4.556447110130089
upperneck 18.122371581351416 2.9420146832310916 -8.301276481804527
head 6.634561117350545 1.0703421637041766 -3.209621260705463
rclavicle 1.1350320922364075E-15 -1.011786407465868E-15
rhumerus 19.38739403017305 14.005430017541205 -48.37717640609561
rradius 71.71972899306914
rwrist 26.66867487101668
rhand -34.62217939858541 -56.25321522614004
rfingers 7.125020000000028
rthumb -7.764751693878463 -86.18429619428636
lclavicle 9.568595825947529E-16 -1.6754918279441961E-15
lhumerus 20.71732071297589 -12.293518894348935 44.8876979194058
lradius 69.73351664722779
lwrist -22.65715925012979
lhand -44.48379253902848 -69.21928425438323
lfingers 7.125020000000021
lthumb -17.31036332904474 -39.93723845705749
rfemur -24.657798748374677 -2.098280442902845 17.180874736051376
rtibia 53.86314555044135
rfoot -29.064990169007213 -17.01218290657215
rtoes -18.29002259834042
lfemur -26.25450214079219 2.5146581046082956 -18.02059411033222
ltibia 54.19322908583153
lfoot -31.054505899504708 -3.4568640548024914
ltoes -20.110694504536202
2
root 0 0 0 1.1180830378930673 -3.696029978987352 1.812493363738947
lowerback 11.910088643329068 0.8640885197624867 -0.031031506856870922
upperback -4.2325756011515425 1.0983675818933434 -0.547522125434816
thorax -11.296779103205834 0.5018069290695428 -0.8087902200853008
lowerneck -5.859950507709671 1.4824043239745612 4.559670121098798
upperneck 18.11312610780137 2.9393983067559564 -8.3098241877138
head 6.6289483591021074 1.0691436591437848 -3.2131455492968657
rclavicle 1.4815611027235493E-15 -1.2391027576783083E-15
rhumerus 19.398165549896 14.017070087024003 -48.39001560266866
rradius 71.73166524159356
rwrist 26.66627847544915
rhand -34.64104811418109 -56.288161244615594
rfingers 7.125020000000028
rthumb -7.782060530337274 -86.21783479878567
lclavicle 1.2851829016676835E-15 -1.9287105490479396E-15
lhumerus 20.733314494895765 -12.296835652441814 44.877590194916536
lradius 69.7463211173847
lwrist -22.66311870595795
lhand -44.492733880292505 -69.2870372557262
lfingers 7.12502000000002
lthumb -17.319877713285017 -40.012535649801535
rfemur -24.64626436657119 -2.0968787951906434 17.18186700700339
rtibia 53.83794279330348
rfoot -29.09025939485744 -17.029084573499063
rtoes -18.313484035737897
lfemur -26.252649468603217 2.515844376962688 -18.018698789315383
ltibia 54.19917225825019
lfoot -31.063780957996045 -3.4519614657914706
ltoes -20.12862996220059
3
root 0 0 0 1.1151541819811706 -3.698132647112639 1.8127476305572974
lowerback 11.910143337970624 0.8637413430879181 -0.030473246527347286
upperback -4.230912594448686 1.0980781773047457 -0.5470389825491937
thorax -11.294937697235671 0.5016404833873396 -0.8084670757592707
lowerneck -5.849899667241761 1.480757970417248 4.561574258631353
upperneck 18.107327275278326 2.9375057594527756 -8.315041559038917
head 6.625400664102737 1.0682844066216581 -3.215316076635274
rclavicle 1.3993618609351506E-15 -1.204410951591411E-15
rhumerus 19.397063153075457 14.014079619377267 -48.38392049465815
rradius 71.73077697645179
rwrist 26.670738472311136
rhand -34.64062848344503 -56.29070441589672
rfingers 7.125020000000028
rthumb -7.781911279955587 -86.22095848770041
lclavicle 1.206705686919771E-15 -1.8797279578117955E-15
lhumerus 20.739078812074936 -12.296891642411948 44.8779925234681
lradius 69.74999700290974
lwrist -22.664550603923175
lhand -44.497027921480715 -69.30262912663508
lfingers 7.125020000000021
lthumb -17.323906133099165 -40.025630731986084
rfemur -24.645016615341422 -2.096811361902619 17.18163424039033
rtibia 53.83508375812347
rfoot -29.093125823540323 -17.02996496474987
rtoes -18.316880339739907
lfemur -26.251037737969117 2.516239973282603 -18.01850924954148
ltibia 54.19962987774413
lfoot -31.064819271392878 -3.450616834957956
ltoes -20.135696933129694
4
root 0 0 0 1.112795844155058 -3.6997749948296215 1.81295598574052
lowerback 11.91018589770378 0.8634532844203704 -0.030031908132148316
upperback -4.229557730567834 1.0978356916638932 -0.5466489873202955
thorax -11.293437082143646 0.5015013228015496 -0.808199021641983
lowerneck -5.841799963693868 1.4793888282226262 4.5630807203846295
upperneck 18.102601136486296 2.9359173555240465 -8.31920364881233
head 6.622524684292302 1.0675648998372074 -3.2170540371969816
rclavicle 1.42483427669865E-15 -1.21893301344504E-15
rhumerus 19.400685993549743 14.018374365914575 -48.38499169913808
rradius 71.73333497478399
rwrist 26.668140725244225
rhand -34.638478295860274 -56.2872145400148
rfingers 7.125020000000028
rthumb -7.779752843493611 -86.21762337366211
lclavicle 1.2457446936593423E-15 -1.9003216601399323E-15
lhumerus 20.73919305455472 -12.298898668053084 44.87522566047655
lradius 69.75089660671266
lwrist -22.6647752898484
lhand -44.49491626826485 -69.29360680312209
lfingers 7.12502000000002
lthumb -17.321938946926117 -40.0174457383977
rfemur -24.644563223873217 -2.097179148422433 17.182377123531126
rtibia 53.836355363054224
rfoot -29.095225659358245 -17.03087478859778
rtoes -18.317984422566894
lfemur -26.25181451341009 2.5162452677798894 -18.018717211498103
ltibia 54.200962576503436
lfoot -31.06577396620439 -3.451557008891899
ltoes -20.136148903771396
5
root 0 0 0 1.110913691941588 -3.701118672938985 1.813133327337641
lowerback 11.910218033724158 0.8632262187160125 -0.029708706414396963
upperback -4.228521908526614 1.097639599875577 -0.5463457232032531
thorax -11.292290926601098 0.5013905581749353 -0.8079800527962613
lowerneck -5.835527926251197 1.4783834887735372 4.564263501898206
upperneck 18.09903322163485 2.93477036818593 -8.322452540379876
head 6.620327320641527 1.067043840233215 -3.218401463908185
rclavicle 1.4204840700684124E-15 -1.211813643928166E-15
rhumerus 19.40384386707924 14.02103478513741 -48.38138676920543
rradius 71.73478715479708
rwrist 26.669020403774468
rhand -34.631836095933934 -56.27958226508092
rfingers 7.125020000000028
rthumb -7.773369427703246 -86.21020635472965
lclavicle 1.2223080792464466E-15 -1.8898534126878273E-15
lhumerus 20.74050747865352 -12.301170983566386 44.874035231750334
lradius 69.7520768888892
lwrist -22.66493822357072
lhand -44.49438865331763 -69.28651685709139
lfingers 7.12502000000002
lthumb -17.321360669396157 -40.009806923722586
rfemur -24.644957683241778 -2.0969838885020753 17.18172548438777
rtibia 53.83573278962362
rfoot -29.094391239807567 -17.029813381299473
rtoes -18.317737238503632
lfemur -26.24886705067668 2.51736783902102 -18.018421181289206
ltibia 54.2000952873223
lfoot -31.064369370266 -3.449459739512244
ltoes -20.143312901790136
